# xmcd
#
# Track frame offsets:
#	182
#	15972
#	30965
#	51897
#	67582
#	88345
#	112000
#	133430
#	149167
#	166780
#	184540
#	205247
#
# Disc length: 2973 seconds
#
# Revision: 0
# Processed by: cddbd v1.5.2PL0 Copyright (c) Steve Scherf et al.
# Submitted via: audiograbber 1.83.01
#
DISCID=a20b9b0c
DTITLE=Little Steven - Voice Of America
DYEAR=1984
DGENRE=Rock
TTITLE0=Voice Of America
TTITLE1=Justice
TTITLE2=Checkpoint Charlie
TTITLE3=Solidarity
TTITLE4=Out Of The Darkness
TTITLE5=Los Desaparecidos
TTITLE6=Fear
TTITLE7=I Am A Patriot
TTITLE8=Among The Believers
TTITLE9=Undefeated
TTITLE10=Vote! [bonus track]
TTITLE11=Caravan [bonus track]
EXTD=
EXTT0=
EXTT1=
EXTT2=
EXTT3=
EXTT4=
EXTT5=
EXTT6=
EXTT7=
EXTT8=
EXTT9=
EXTT10=
EXTT11=
PLAYORDER=
